<svg width="22" height="23" viewBox="0 0 22 23" fill="none" xmlns="http://www.w3.org/2000/svg">
<path d="M10 4.99963H8V7.99963H10V4.99963Z" fill="#D4007A"/>
<path d="M14 4.99963H12V7.99963H14V4.99963Z" fill="#D4007A"/>
<path d="M3.35121 4.93665L4.00021 4.69265V8.99965H6.00021V3.94265L11.0002 2.06765L16.0002 3.94265V8.99965H18.0002V4.69265L18.6492 4.93665C18.7617 4.97792 18.8804 4.99924 19.0002 4.99965C19.2348 5.00004 19.462 4.91796 19.6422 4.76775C19.8224 4.61754 19.944 4.40877 19.9859 4.17795C20.0277 3.94714 19.987 3.70896 19.871 3.50508C19.755 3.3012 19.571 3.14459 19.3512 3.06265L11.3512 0.0626486C11.1254 -0.0208829 10.8771 -0.0208829 10.6512 0.0626486L2.65121 3.06265C2.52816 3.10861 2.41537 3.17836 2.31928 3.26791C2.22319 3.35747 2.14567 3.46507 2.09116 3.58458C2.03666 3.70409 2.00622 3.83316 2.0016 3.96443C1.99697 4.0957 2.01825 4.2266 2.06421 4.34965C2.11017 4.4727 2.17992 4.58549 2.26948 4.68158C2.35903 4.77767 2.46663 4.85519 2.58614 4.9097C2.70565 4.9642 2.83472 4.99464 2.96599 4.99926C3.09727 5.00389 3.22816 4.98261 3.35121 4.93665Z" fill="#D4007A"/>
<path d="M21 10.9996H1C0.734784 10.9996 0.48043 11.105 0.292893 11.2925C0.105357 11.4801 0 11.7344 0 11.9996V21.9996C0 22.2649 0.105357 22.5192 0.292893 22.7067C0.48043 22.8943 0.734784 22.9996 1 22.9996H9V16.9996H13V22.9996H21C21.2652 22.9996 21.5196 22.8943 21.7071 22.7067C21.8946 22.5192 22 22.2649 22 21.9996V11.9996C22 11.7344 21.8946 11.4801 21.7071 11.2925C21.5196 11.105 21.2652 10.9996 21 10.9996ZM6 18.9996H3V14.9996H6V18.9996ZM19 18.9996H16V14.9996H19V18.9996Z" fill="#D4007A"/>
</svg>
