<svg width="23" height="24" viewBox="0 0 23 24" fill="none" xmlns="http://www.w3.org/2000/svg">
<path d="M5.993 0.883C5.96434 0.639749 5.84741 0.415474 5.66437 0.252715C5.48134 0.0899561 5.24493 3.23106e-05 5 0L0 0V2H4.111L4.581 6H1V21C1 21.7956 1.31607 22.5587 1.87868 23.1213C2.44129 23.6839 3.20435 24 4 24H10C10.7956 24 11.5587 23.6839 12.1213 23.1213C12.6839 22.5587 13 21.7956 13 21V6H6.6L5.993 0.883ZM11 8V21C11 21.2652 10.8946 21.5196 10.7071 21.7071C10.5196 21.8946 10.2652 22 10 22H4C3.73478 22 3.48043 21.8946 3.29289 21.7071C3.10536 21.5196 3 21.2652 3 21V8H4.817L6.124 19.11L8.11 18.876L6.83 8H11Z" fill="#D4007A"/>
<path d="M16 8H15V22H16C17.8565 22 19.637 21.2625 20.9497 19.9497C22.2625 18.637 23 16.8565 23 15C23 13.1435 22.2625 11.363 20.9497 10.0503C19.637 8.7375 17.8565 8 16 8Z" fill="#D4007A"/>
<path d="M19 2V1C17.9391 1 16.9217 1.42143 16.1716 2.17157C15.4214 2.92172 15 3.93913 15 5V6C16.0609 6 17.0783 5.57857 17.8284 4.82843C18.5786 4.07828 19 3.06087 19 2Z" fill="#D4007A"/>
</svg>
