<svg width="24" height="24" viewBox="0 0 24 24" fill="none" xmlns="http://www.w3.org/2000/svg">
<path d="M23.287 3.04195L13.287 0.0419474C13.1377 -0.00278657 12.98 -0.0119986 12.8265 0.0150465C12.673 0.0420916 12.5279 0.104645 12.4029 0.197714C12.2779 0.290783 12.1763 0.411791 12.1064 0.551079C12.0364 0.690368 12 0.84408 12 0.999947V5.99995H14V2.34395L22 4.74395V21.9999H16V8.99995C16 8.73473 15.8946 8.48038 15.7071 8.29284C15.5196 8.1053 15.2652 7.99995 15 7.99995H5C4.73478 7.99995 4.48043 8.1053 4.29289 8.29284C4.10536 8.48038 4 8.73473 4 8.99995V21.9999H2V11.9999H1C0.734784 11.9999 0.48043 12.1053 0.292893 12.2928C0.105357 12.4804 0 12.7347 0 12.9999L0 22.9999C0 23.2652 0.105357 23.5195 0.292893 23.7071C0.48043 23.8946 0.734784 23.9999 1 23.9999H23C23.2652 23.9999 23.5196 23.8946 23.7071 23.7071C23.8946 23.5195 24 23.2652 24 22.9999V3.99995C24 3.78481 23.9307 3.57541 23.8022 3.40283C23.6738 3.23025 23.4931 3.10369 23.287 3.04195ZM12 20.9999H8V18.9999H12V20.9999ZM12 16.9999H8V14.9999H12V16.9999ZM12 12.9999H8V10.9999H12V12.9999Z" fill="#D4007A"/>
<path d="M20 8H18V20H20V8Z" fill="#D4007A"/>
</svg>
