<svg width="25" height="23" viewBox="0 0 25 23" fill="none" xmlns="http://www.w3.org/2000/svg">
<path d="M14 20H12V23H14V20Z" fill="#D4007A"/>
<path d="M13.707 0.293061C13.5159 0.112389 13.263 0.0117188 13 0.0117188C12.737 0.0117188 12.4841 0.112389 12.293 0.293061C12.077 0.509061 7 5.64706 7 11.0001C7 15.2941 9.377 17.4771 12 17.9141V10.0001H14V17.9141C16.623 17.4771 19 15.2941 19 11.0001C19 5.64706 13.923 0.509061 13.707 0.293061Z" fill="#D4007A"/>
<path d="M22.4891 1.92399C22.4254 1.80913 22.3396 1.70795 22.2368 1.62623C22.1339 1.54451 22.016 1.48386 21.8897 1.44774C21.7634 1.41161 21.6312 1.40072 21.5007 1.4157C21.3702 1.43067 21.2439 1.47121 21.1291 1.53499C20.2233 2.06097 19.3546 2.64834 18.5291 3.29299C20.0318 5.59257 20.8856 8.25534 21.0001 11C21.0001 14.889 19.3591 17.444 17.1831 18.807C17.6466 18.9236 18.1222 18.9847 18.6001 18.989C21.0451 18.989 23.5571 17.454 24.6371 13.673C26.1081 8.52599 22.6381 2.18999 22.4891 1.92399Z" fill="#D4007A"/>
<path d="M5.00019 11C5.11353 8.25572 5.96586 5.59298 7.46719 3.29299C6.64166 2.64834 5.77296 2.06097 4.86719 1.53499C4.75235 1.47121 4.62608 1.43067 4.49557 1.4157C4.36507 1.40072 4.23289 1.41161 4.1066 1.44774C3.9803 1.48386 3.86236 1.54451 3.75951 1.62623C3.65666 1.70795 3.57092 1.80913 3.50719 1.92399C3.35819 2.18999 -0.111812 8.52399 1.35919 13.673C2.43919 17.454 4.95119 18.989 7.39619 18.989C7.87407 18.9847 8.34974 18.9236 8.81319 18.807C6.64119 17.444 5.00019 14.889 5.00019 11Z" fill="#D4007A"/>
</svg>
