<svg width="24" height="22" viewBox="0 0 24 22" fill="none" xmlns="http://www.w3.org/2000/svg">
<path d="M23 15.0002H1C0.734784 15.0002 0.48043 15.1056 0.292893 15.2931C0.105357 15.4807 0 15.735 0 16.0002C0 16.2655 0.105357 16.5198 0.292893 16.7074C0.48043 16.8949 0.734784 17.0002 1 17.0002H1.323L1.563 17.6002C2.07875 18.9019 2.9748 20.018 4.13428 20.8029C5.29376 21.5878 6.66286 22.005 8.063 22.0002H15.939C17.3391 22.0048 18.7081 21.5874 19.8675 20.8025C21.0269 20.0177 21.923 18.9018 22.439 17.6002L22.678 17.0002H23C23.2652 17.0002 23.5196 16.8949 23.7071 16.7074C23.8946 16.5198 24 16.2655 24 16.0002C24 15.735 23.8946 15.4807 23.7071 15.2931C23.5196 15.1056 23.2652 15.0002 23 15.0002Z" fill="#D4007A"/>
<path d="M3 14.0001C3.26522 14.0001 3.51957 13.8948 3.70711 13.7072C3.89464 13.5197 4 13.2653 4 13.0001C4 11.3461 5.794 10.0001 8 10.0001C8.93626 9.99137 9.85475 10.2558 10.643 10.7611C10.227 11.4342 10.0045 12.2089 10 13.0001C10 13.2653 10.1054 13.5197 10.2929 13.7072C10.4804 13.8948 10.7348 14.0001 11 14.0001C11.2652 14.0001 11.5196 13.8948 11.7071 13.7072C11.8946 13.5197 12 13.2653 12 13.0001C12.0103 12.3798 12.2517 11.7857 12.677 11.3341L12.685 11.3291C12.685 11.3291 12.691 11.3181 12.696 11.3131C13.128 10.8804 13.644 10.5407 14.2122 10.3149C14.7804 10.0891 15.3888 9.98199 16 10.0001C18.206 10.0001 20 11.3461 20 13.0001C20 13.2653 20.1054 13.5197 20.2929 13.7072C20.4804 13.8948 20.7348 14.0001 21 14.0001C21.2652 14.0001 21.5196 13.8948 21.7071 13.7072C21.8946 13.5197 22 13.2653 22 13.0001C21.9414 11.9486 21.5576 10.9413 20.9018 10.1173C20.246 9.29328 19.3505 8.69326 18.339 8.40013L21.731 2.80013C21.757 2.75713 21.781 2.71413 21.803 2.66913C21.9113 2.45312 21.976 2.21789 21.9934 1.97687C22.0107 1.73585 21.9804 1.49378 21.9042 1.26448C21.8279 1.03518 21.7072 0.823161 21.549 0.640533C21.3908 0.457904 21.1981 0.30825 20.982 0.200126C20.9373 0.177459 20.8913 0.156459 20.844 0.137125C20.3914 -0.0447823 19.8851 -0.0395241 19.4363 0.151744C18.9876 0.343012 18.6332 0.704637 18.451 1.15713L15.71 8.00813C14.3774 8.05009 13.0882 8.4919 12.01 9.27613C10.8457 8.42988 9.43923 7.98233 8 8.00013C4.691 8.00013 2 10.2431 2 13.0001C2 13.2653 2.10536 13.5197 2.29289 13.7072C2.48043 13.8948 2.73478 14.0001 3 14.0001Z" fill="#D4007A"/>
<path d="M12 5.00024V7.00024C11.2044 7.00024 10.4413 6.68417 9.87868 6.12156C9.31607 5.55896 9 4.79589 9 4.00024V2.00024C9.79565 2.00024 10.5587 2.31631 11.1213 2.87892C11.6839 3.44153 12 4.20459 12 5.00024Z" fill="#D4007A"/>
</svg>
