<svg width="19" height="24" viewBox="0 0 19 24" fill="none" xmlns="http://www.w3.org/2000/svg">
<path d="M4.939 22.308L4.915 22H2.331C2.145 22 2.001 21.744 2.001 21.523C2.02731 21.2062 2.09627 20.8944 2.206 20.596C2.47625 19.8008 2.61835 18.9678 2.627 18.128C2.61542 17.4303 2.55528 16.7343 2.447 16.045C2.24969 14.681 2.15309 13.3042 2.158 11.926C2.25534 10.0979 2.6537 8.29839 3.337 6.6C3.68663 5.77126 3.91044 4.89491 4.001 4V3H6.001V4C6.09156 4.89491 6.31536 5.77126 6.665 6.6L6.81 7.022C6.874 7.022 6.936 7.002 7.001 7.002H8.912C8.79 6.629 8.668 6.272 8.555 5.945C8.30083 5.31851 8.11509 4.66639 8.001 4V1C8.001 0.734784 7.89564 0.48043 7.7081 0.292893C7.52057 0.105357 7.26621 0 7.001 0L3.001 0C2.73578 0 2.48143 0.105357 2.29389 0.292893C2.10635 0.48043 2.001 0.734784 2.001 1V4C1.88676 4.66571 1.70102 5.31715 1.447 5.943C0.688438 7.85203 0.252822 9.87397 0.157997 11.926C0.152255 13.3926 0.254867 14.8576 0.464997 16.309C0.560423 16.9109 0.614549 17.5187 0.626997 18.128C0.616579 18.7715 0.503489 19.4092 0.291997 20.017C0.119882 20.5015 0.0217798 21.0092 0.000997075 21.523C-0.0173291 22.1601 0.217593 22.7786 0.65431 23.2428C1.09103 23.7071 1.69394 23.9794 2.331 24H5.486C5.17678 23.4852 4.98966 22.9064 4.939 22.308Z" fill="#D4007A"/>
<path d="M17.735 9.32C17.6413 9.21897 17.5278 9.1384 17.4014 9.08333C17.2751 9.02827 17.1388 8.9999 17.001 9H7.00102C6.86296 8.99959 6.72631 9.02778 6.59967 9.08278C6.47304 9.13778 6.35917 9.2184 6.26523 9.31957C6.17129 9.42075 6.09932 9.54028 6.05384 9.67063C6.00837 9.80099 5.99038 9.93935 6.00102 10.077L6.93002 22.154C6.9711 22.6559 7.19912 23.1242 7.56893 23.466C7.93874 23.8079 8.42341 23.9984 8.92702 24H15.075C15.5782 23.9981 16.0624 23.8074 16.4317 23.4655C16.801 23.1237 17.0284 22.6556 17.069 22.154L18.001 10.077C18.0114 9.9393 17.993 9.80094 17.9473 9.67066C17.9015 9.54037 17.8292 9.42098 17.735 9.32Z" fill="#D4007A"/>
</svg>
