<svg width="24" height="24" viewBox="0 0 24 24" fill="none" xmlns="http://www.w3.org/2000/svg">
<path d="M21 22C20.4 22 20 21.6 20 21V1C20 0.4 20.4 0 21 0H23C23.6 0 24 0.4 24 1C24 1.6 23.6 2 23 2H22V21C22 21.6 21.6 22 21 22Z" fill="#D4007A"/>
<path d="M1 18H17C17.6 18 18 17.6 18 17V10H0V17C0 17.6 0.4 18 1 18Z" fill="#D4007A"/>
<path d="M18 5C18 4.4 17.6 4 17 4H13V1C13 0.4 12.6 0 12 0H6C5.4 0 5 0.4 5 1V4H1C0.4 4 0 4.4 0 5V8H18V5ZM7 2H11V4H7V2Z" fill="#D4007A"/>
<path d="M21 20H1C0.4 20 0 20.4 0 21C0 21.6 0.4 22 1 22H2V23C2 23.6 2.4 24 3 24C3.6 24 4 23.6 4 23V22H18V23C18 23.6 18.4 24 19 24C19.6 24 20 23.6 20 23V22H21C21.6 22 22 21.6 22 21C22 20.4 21.6 20 21 20Z" fill="#D4007A"/>
</svg>
