<svg width="24" height="22" viewBox="0 0 24 22" fill="none" xmlns="http://www.w3.org/2000/svg">
<path d="M14.447 0.104998C14.109 -0.0620019 13.703 -0.0270019 13.4 0.199998L5.667 6H1C0.447 6 0 6.447 0 7V15C0 15.553 0.447 16 1 16H5.667L13.4 21.8C13.576 21.933 13.788 22 14 22C14.152 22 14.306 21.965 14.447 21.895C14.786 21.725 15 21.379 15 21V0.999998C15 0.620998 14.786 0.274998 14.447 0.104998Z" fill="#D4007A"/>
<path d="M24 10H18V12H24V10Z" fill="#D4007A"/>
<path d="M21.491 2.63488L16.2944 5.63428L17.2942 7.36648L22.4908 4.36708L21.491 2.63488Z" fill="#D4007A"/>
<path d="M17.2935 14.6349L16.2935 16.3669L21.4895 19.3669L22.4895 17.6349L17.2935 14.6349Z" fill="#D4007A"/>
</svg>
