<svg width="24" height="24" viewBox="0 0 24 24" fill="none" xmlns="http://www.w3.org/2000/svg">
<path d="M6 12.9979C4.67392 12.9979 3.40215 12.4711 2.46447 11.5334C1.52678 10.5957 1 9.32396 1 7.99788C1 6.67179 1.52678 5.40002 2.46447 4.46234C3.40215 3.52466 4.67392 2.99788 6 2.99788C6.061 2.99788 6.118 3.01387 6.178 3.01587C6.40925 2.34636 6.87045 1.78056 7.4796 1.41908C8.08874 1.05761 8.80635 0.923885 9.5048 1.04169C10.2033 1.1595 10.8373 1.52121 11.2942 2.06249C11.7511 2.60378 12.0012 3.28955 12 3.99787V4.99787C12 5.79352 11.6839 6.55659 11.1213 7.1192C10.5587 7.6818 9.79565 7.99788 9 7.99788H8" stroke="#D4007A" stroke-width="2" stroke-miterlimit="10" stroke-linecap="square"/>
<path d="M21.842 16.8096C21.9426 17.1977 21.9957 17.5966 22 17.9976C22 19.3237 21.4732 20.5954 20.5355 21.5331C19.5979 22.4708 18.3261 22.9976 17 22.9976C15.6739 22.9976 14.4021 22.4708 13.4645 21.5331C12.5268 20.5954 12 19.3237 12 17.9976C12 19.3237 11.4732 20.5954 10.5355 21.5331C9.59785 22.4708 8.32608 22.9976 7 22.9976C5.67392 22.9976 4.40215 22.4708 3.46447 21.5331C2.52678 20.5954 2 19.3237 2 17.9976C2.00433 17.5966 2.05738 17.1977 2.158 16.8096" stroke="#D4007A" stroke-width="2" stroke-miterlimit="10"/>
<path d="M2.176 11.1836C1.8034 11.5514 1.50757 11.9895 1.30569 12.4726C1.10381 12.9557 0.999903 13.474 1 13.9976C1 15.0585 1.42143 16.0759 2.17157 16.826C2.92172 17.5762 3.93913 17.9976 5 17.9976H6" stroke="#D4007A" stroke-width="2" stroke-miterlimit="10"/>
<path d="M7 8.99805C7.55228 8.99805 8 8.55033 8 7.99805C8 7.44576 7.55228 6.99805 7 6.99805C6.44772 6.99805 6 7.44576 6 7.99805C6 8.55033 6.44772 8.99805 7 8.99805Z" stroke="#D4007A" stroke-width="2" stroke-miterlimit="10" stroke-linecap="square"/>
<path d="M7 18.998C7.55228 18.998 8 18.5503 8 17.998C8 17.4458 7.55228 16.998 7 16.998C6.44772 16.998 6 17.4458 6 17.998C6 18.5503 6.44772 18.998 7 18.998Z" stroke="#D4007A" stroke-width="2" stroke-miterlimit="10" stroke-linecap="square"/>
<path d="M21.824 11.1836C22.1966 11.5514 22.4924 11.9895 22.6943 12.4726C22.8962 12.9557 23.0001 13.474 23 13.9976C23 15.0585 22.5786 16.0759 21.8284 16.826C21.0783 17.5762 20.0609 17.9976 19 17.9976H18" stroke="#D4007A" stroke-width="2" stroke-miterlimit="10"/>
<path d="M12 17.998V13.998" stroke="#D4007A" stroke-width="2" stroke-miterlimit="10" stroke-linecap="square"/>
<path d="M17 18.998C17.5523 18.998 18 18.5503 18 17.998C18 17.4458 17.5523 16.998 17 16.998C16.4477 16.998 16 17.4458 16 17.998C16 18.5503 16.4477 18.998 17 18.998Z" stroke="#D4007A" stroke-width="2" stroke-miterlimit="10" stroke-linecap="square"/>
<path d="M18 12.9979C19.3261 12.9979 20.5979 12.4711 21.5355 11.5334C22.4732 10.5957 23 9.32396 23 7.99788C23 6.67179 22.4732 5.40002 21.5355 4.46234C20.5979 3.52466 19.3261 2.99788 18 2.99788C17.939 2.99788 17.882 3.01387 17.822 3.01587C17.5908 2.34636 17.1296 1.78056 16.5204 1.41908C15.9113 1.05761 15.1937 0.923885 14.4952 1.04169C13.7967 1.1595 13.1627 1.52121 12.7058 2.06249C12.249 2.60378 11.9989 3.28955 12 3.99787V4.99787C12 5.79352 12.3161 6.55659 12.8787 7.1192C13.4413 7.6818 14.2044 7.99788 15 7.99788H16" stroke="#D4007A" stroke-width="2" stroke-miterlimit="10" stroke-linecap="square"/>
<path d="M17 8.99805C17.5523 8.99805 18 8.55033 18 7.99805C18 7.44576 17.5523 6.99805 17 6.99805C16.4477 6.99805 16 7.44576 16 7.99805C16 8.55033 16.4477 8.99805 17 8.99805Z" stroke="#D4007A" stroke-width="2" stroke-miterlimit="10" stroke-linecap="square"/>
<path d="M12 13.998C12.5523 13.998 13 13.5503 13 12.998C13 12.4458 12.5523 11.998 12 11.998C11.4477 11.998 11 12.4458 11 12.998C11 13.5503 11.4477 13.998 12 13.998Z" stroke="#D4007A" stroke-width="2" stroke-miterlimit="10" stroke-linecap="square"/>
</svg>
