<svg width="23" height="25" viewBox="0 0 23 25" fill="none" xmlns="http://www.w3.org/2000/svg">
<path d="M19 23.9999V17.6999C19.928 16.8726 20.6738 15.8615 21.1903 14.7306C21.7067 13.5998 21.9825 12.374 22 11.1309C22.0099 8.77351 21.1046 6.50427 19.4747 4.80108C17.8448 3.09788 15.6175 2.09367 13.262 1.99991C12.0582 1.96485 10.8597 2.17173 9.73734 2.6083C8.61498 3.04487 7.59166 3.70225 6.72799 4.5415C5.86431 5.38074 5.17785 6.38478 4.70926 7.49415C4.24067 8.60351 3.99949 9.79564 4 10.9999V11.9999L2 16.9999L4 17.9999V21.9999C4 22.5303 4.21071 23.039 4.58579 23.4141C4.96086 23.7892 5.46957 23.9999 6 23.9999H10C10.6566 23.9999 11.3068 23.8706 11.9134 23.6193C12.52 23.368 13.0712 22.9997 13.5355 22.5354C13.9998 22.0711 14.3681 21.52 14.6194 20.9133C14.8707 20.3067 15 19.6565 15 18.9999V13.9999" stroke="#D4007A" stroke-width="2" stroke-miterlimit="10" stroke-linecap="square"/>
<path d="M15 14C16.6569 14 18 12.6569 18 11C18 9.34315 16.6569 8 15 8C13.3431 8 12 9.34315 12 11C12 12.6569 13.3431 14 15 14Z" stroke="#D4007A" stroke-width="2" stroke-miterlimit="10" stroke-linecap="square"/>
</svg>
