<svg width="24" height="21" viewBox="0 0 24 21" fill="none" xmlns="http://www.w3.org/2000/svg">
<path d="M4 20C4 18.6739 4.52678 17.4021 5.46447 16.4645C6.40215 15.5268 7.67392 15 9 15" stroke="#D4007A" stroke-width="2" stroke-miterlimit="10" stroke-linecap="square"/>
<path d="M20 20C20 18.6739 19.4732 17.4021 18.5355 16.4645C17.5979 15.5268 16.3261 15 15 15" stroke="#D4007A" stroke-width="2" stroke-miterlimit="10" stroke-linecap="square"/>
<path d="M5 1V7" stroke="#D4007A" stroke-width="2" stroke-miterlimit="10" stroke-linecap="square"/>
<path d="M19 1V7" stroke="#D4007A" stroke-width="2" stroke-miterlimit="10" stroke-linecap="square"/>
<path d="M12 12C12.5523 12 13 11.5523 13 11C13 10.4477 12.5523 10 12 10C11.4477 10 11 10.4477 11 11C11 11.5523 11.4477 12 12 12Z" fill="#D4007A"/>
<path d="M19 7H5C4.46957 7 3.96086 7.21071 3.58579 7.58579C3.21071 7.96086 3 8.46957 3 9C3 9.53043 3.21071 10.0391 3.58579 10.4142C3.96086 10.7893 4.46957 11 5 11H8L9 15H15L16 11H19C19.5304 11 20.0391 10.7893 20.4142 10.4142C20.7893 10.0391 21 9.53043 21 9C21 8.46957 20.7893 7.96086 20.4142 7.58579C20.0391 7.21071 19.5304 7 19 7Z" stroke="#D4007A" stroke-width="2" stroke-miterlimit="10" stroke-linecap="square"/>
<path d="M1 3H9" stroke="#D4007A" stroke-width="2" stroke-miterlimit="10" stroke-linecap="square"/>
<path d="M15 3H23" stroke="#D4007A" stroke-width="2" stroke-miterlimit="10" stroke-linecap="square"/>
</svg>
