<svg width="24" height="22" viewBox="0 0 24 22" fill="none" xmlns="http://www.w3.org/2000/svg">
<path d="M23.362 9.29992C22.3104 7.52037 20.8051 6.05199 19 5.04492C18.9957 5.77288 18.8773 6.49566 18.649 7.18692C19.8563 7.94802 20.8641 8.98694 21.588 10.2169C21.7863 10.5447 21.9153 10.9097 21.9669 11.2893C22.0185 11.6689 21.9916 12.0551 21.888 12.4239C21.129 14.6999 16.334 15.9459 10.407 14.1719C9.927 14.0279 9.458 13.8679 9 13.6919V18.9999C9 19.7956 9.31607 20.5586 9.87868 21.1212C10.4413 21.6839 11.2044 21.9999 12 21.9999C12.7956 21.9999 13.5587 21.6839 14.1213 21.1212C14.6839 20.5586 15 19.7956 15 18.9999V16.9699C15.252 16.9809 15.507 16.9999 15.752 16.9999C19.786 16.9999 22.943 15.5809 23.786 13.0569C23.9745 12.4348 24.0342 11.7807 23.9612 11.1347C23.8883 10.4887 23.6844 9.86441 23.362 9.29992Z" fill="#D4007A"/>
<path d="M11.9999 2.07193e-05C10.9518 -0.00300016 9.92945 0.324383 9.07809 0.935644C8.22674 1.5469 7.58971 2.41094 7.25751 3.40497C6.92532 4.399 6.91488 5.47244 7.22767 6.47274C7.54045 7.47304 8.16056 8.34931 8.99986 8.97702V11.533C9.64448 11.8139 10.3053 12.056 10.9789 12.258C12.2868 12.6513 13.6363 12.8896 14.9999 12.968V8.97702C15.8392 8.34931 16.4593 7.47304 16.772 6.47274C17.0848 5.47244 17.0744 4.399 16.7422 3.40497C16.41 2.41094 15.773 1.5469 14.9216 0.935644C14.0703 0.324383 13.0479 -0.00300016 11.9999 2.07193e-05ZM11.9999 7.00002C11.6043 7.00002 11.2176 6.88272 10.8887 6.66296C10.5598 6.4432 10.3035 6.13084 10.1521 5.76539C10.0007 5.39994 9.96112 4.9978 10.0383 4.60984C10.1155 4.22188 10.3059 3.86551 10.5856 3.58581C10.8653 3.3061 11.2217 3.11562 11.6097 3.03845C11.9976 2.96128 12.3998 3.00089 12.7652 3.15226C13.1307 3.30364 13.443 3.55998 13.6628 3.88888C13.8826 4.21778 13.9999 4.60446 13.9999 5.00002C13.9999 5.53045 13.7891 6.03916 13.4141 6.41423C13.039 6.78931 12.5303 7.00002 11.9999 7.00002Z" fill="#D4007A"/>
<path d="M6.99994 14.0003L5.47194 9.50028L4.30794 11.0093C3.53869 10.3959 2.89552 9.63926 2.41394 8.78128C2.21561 8.4535 2.08666 8.08851 2.03505 7.70889C1.98345 7.32928 2.0103 6.94311 2.11394 6.57428C2.39246 6.00525 2.80216 5.51052 3.3093 5.13082C3.81644 4.75112 4.40652 4.4973 5.03094 4.39028C5.09347 3.64881 5.27478 2.9222 5.56794 2.23828C2.86194 2.73828 0.858944 4.01228 0.214944 5.93828C0.0251856 6.56109 -0.0350895 7.21616 0.0378293 7.86314C0.110748 8.51012 0.315318 9.13533 0.638944 9.70028C1.26314 10.8116 2.09925 11.7898 3.09994 12.5793L1.59994 14.5173L6.99994 14.0003Z" fill="#D4007A"/>
</svg>
