<svg width="23" height="22" viewBox="0 0 23 22" fill="none" xmlns="http://www.w3.org/2000/svg">
<path d="M10 13C7.176 13 4.671 13.638 3.025 14.193C1.81 14.604 1 15.749 1 17.032V21C1 21 10.958 21 11 21" stroke="#D4007A" stroke-width="2" stroke-miterlimit="10"/>
<path d="M10 13C7.239 13 5 9.761 5 7V6C5 3.239 7.239 1 10 1C12.761 1 15 3.239 15 6V7C15 9.761 12.761 13 10 13Z" stroke="#D4007A" stroke-width="2" stroke-miterlimit="10" stroke-linecap="square"/>
<path d="M18 12L19.545 15.131L23 15.633L20.5 18.07L21.09 21.511L18 19.886L14.91 21.511L15.5 18.07L13 15.633L16.455 15.131L18 12Z" fill="#D4007A"/>
</svg>
