<svg width="40" height="27" viewBox="0 0 40 27" fill="none" xmlns="http://www.w3.org/2000/svg">
<path d="M37.5222 8.57677C37.4953 8.54575 37.4724 8.51555 37.4406 8.48534L36.0389 7.1326C37.2014 6.86891 38.4529 5.89498 38.4529 4.89573C38.4529 3.73158 36.8373 3.31849 35.4584 3.31849C34.0167 3.31849 33.8493 4.30631 33.8321 5.00431L30.2155 1.51757C29.4808 0.790175 28.0872 0.217896 27.0455 0.217896H20.0016H20H12.9545C11.9136 0.217896 10.5209 0.790175 9.78529 1.51757L6.16948 5.00431C6.15071 4.30631 5.98335 3.31849 4.54323 3.31849C3.16271 3.31849 1.54788 3.73158 1.54788 4.89573C1.54788 5.89498 2.80023 6.86891 3.96277 7.1326L2.56103 8.48534C2.52919 8.51555 2.50714 8.54575 2.47939 8.57677C0.979672 9.85848 0 12.2358 0 13.9608V19.0868C0 20.331 0.490652 21.46 1.28337 22.3017V24.2896C1.28337 25.4521 2.25651 26.3999 3.45334 26.3999H6.07723C7.27406 26.3999 8.24639 25.4537 8.24639 24.2896V23.781H20H20.0016H31.7544V24.2896C31.7544 25.4537 32.7259 26.3999 33.9244 26.3999H36.5475C37.7451 26.3999 38.7166 25.4521 38.7166 24.2896V22.3017C39.5102 21.46 40 20.331 40 19.0868V13.9608C40.0016 12.2358 39.022 9.85848 37.5222 8.57677ZM11.1136 3.06705C11.6222 2.64335 12.5112 2.3217 12.9545 2.3217H20H20.0016H27.0471C27.4904 2.3217 28.3795 2.64335 28.8881 3.06705L33.6305 7.66325H20.0016H20H6.37195L11.1136 3.06705ZM1.62707 13.1852C1.62707 11.9231 2.61491 10.8985 3.8346 10.8985C5.05347 10.8985 9.03666 13.2367 9.03666 14.4988C9.03666 15.7609 5.05347 15.4686 3.8346 15.4686C2.61491 15.4686 1.62707 14.4482 1.62707 13.1852ZM8.2472 21.5335H7.82676H7.40632L4.91224 21.5376C4.21994 21.322 3.73173 21.0706 3.3864 20.8004C3.21169 20.664 3.0778 20.522 2.9733 20.3808C2.86799 20.2379 2.79125 20.0975 2.74145 19.9571C2.43122 19.0803 3.07209 18.2745 3.07209 18.2745H7.32876L10.1665 21.5319L8.2472 21.5335ZM26.1213 21.5351H20.0016H20H13.8803C12.6043 21.5351 11.5683 20.4991 11.5683 19.224H20H20.0016H28.4333C28.4333 20.5008 27.3973 21.5351 26.1213 21.5351ZM26.6585 17.6467H20.0016H20H13.3431C11.9553 17.6467 10.8286 15.9356 10.8286 13.8253H20H20.0016H29.173C29.173 15.9364 28.0464 17.6467 26.6585 17.6467ZM37.261 19.9587C37.2104 20.0991 37.1336 20.2395 37.0283 20.3816C36.9246 20.5228 36.7908 20.6649 36.6152 20.8012C36.2707 21.0714 35.7817 21.3245 35.0894 21.5384L32.5953 21.5343H32.1749H31.7544H29.8335L32.6729 18.277H36.9287C36.9287 18.2761 37.5704 19.0803 37.261 19.9587ZM36.167 15.4686C34.949 15.4686 30.9658 15.7593 30.9658 14.4988C30.9658 13.2383 34.949 10.8985 36.167 10.8985C37.3867 10.8985 38.3746 11.9231 38.3746 13.1852C38.3746 14.4465 37.3867 15.4686 36.167 15.4686Z" fill="#D4007A"/>
</svg>
