<svg width="31" height="41" viewBox="0 0 31 41" fill="none" xmlns="http://www.w3.org/2000/svg">
<path d="M30.0236 36.556V35.6922C30.0236 35.3246 29.8126 34.991 29.4815 34.8327C29.2705 34.7314 24.3942 32.4558 16.4151 32.2813V29.0288C16.9827 28.6994 17.3674 28.091 17.3674 27.388V26.337H24.1219C24.1278 26.337 24.1363 26.337 24.1406 26.337C25.1924 26.337 26.0452 25.4835 26.0452 24.4325C26.0452 24.2733 26.0239 24.1202 25.9873 23.9729C27.6493 23.424 28.5224 22.927 28.5999 22.8802C28.8909 22.71 29.0705 22.3977 29.0705 22.0582V16.85H29.9734C30.5002 16.85 30.9257 16.4236 30.9257 15.8977C30.9257 15.3718 30.5002 14.9454 29.9734 14.9454H26.2639C25.7379 14.9454 25.3124 15.3718 25.3124 15.8977C25.3124 16.4236 25.7379 16.85 26.2639 16.85H27.1676V21.4701C26.7013 21.6846 25.8886 22.019 24.7431 22.3577L24.098 21.7127C23.6623 21.2769 23.0411 21.0778 22.4326 21.1808C22.4113 21.1842 20.5127 21.4965 17.3683 21.5952V19.9315C20.8353 19.7162 22.5986 18.9673 22.8164 18.8686C23.5611 18.5316 24.007 17.7563 23.9253 16.9427L22.4658 2.4441C22.396 1.75053 21.9526 1.14971 21.311 0.879093C21.0965 0.788886 19.1171 0 15.4628 0C11.8086 0 9.83001 0.788886 9.61641 0.879093C8.97305 1.14971 8.53052 1.74968 8.46074 2.4441L7.00126 16.9462C6.91871 17.7597 7.36549 18.535 8.11097 18.872C8.32798 18.9699 10.0913 19.7196 13.5583 19.9349V21.5986C10.4138 21.4999 8.51605 21.1893 8.49563 21.1842C7.8829 21.0795 7.26592 21.2786 6.8285 21.7161L6.18429 22.3611C5.03713 22.0224 4.22441 21.688 3.75976 21.4735V16.8542H4.66268C5.18946 16.8542 5.61496 16.4279 5.61496 15.902C5.61496 15.376 5.18946 14.9497 4.66268 14.9497H0.95228C0.425505 14.9497 0 15.376 0 15.902C0 16.4279 0.425505 16.8542 0.95228 16.8542H1.8552V22.0624C1.8552 22.3994 2.03476 22.7143 2.32581 22.8853C2.40666 22.9322 3.28405 23.4351 4.96479 23.9857C4.87033 24.3712 4.88565 24.784 5.04479 25.1661C5.34009 25.8775 6.03451 26.3413 6.80467 26.3413H13.5591V27.3931C13.5591 28.0961 13.9438 28.7029 14.5114 29.0339V32.2864C6.5315 32.4592 1.65692 34.7348 1.44501 34.8361C1.11482 34.9952 0.903772 35.3297 0.903772 35.6956V36.5611C0.365083 36.8862 0.000850948 37.4708 0.000850948 38.1465C0.000850948 39.1711 0.833139 40.0026 1.85605 40.0026C2.88152 40.0026 3.7121 39.1711 3.7121 38.1465C3.7121 37.4708 3.34787 36.8853 2.80833 36.5611V36.3279C4.23888 35.7594 8.43095 34.328 14.5114 34.1893V36.5611C13.9727 36.8862 13.6085 37.4708 13.6085 38.1465C13.6085 39.1711 14.4408 40.0026 15.4637 40.0026C16.4892 40.0026 17.3197 39.1711 17.3197 38.1465C17.3197 37.4708 16.9555 36.8853 16.416 36.5611V34.1893C22.4735 34.3297 26.6817 35.7611 28.1191 36.3279V36.5611C27.5795 36.8862 27.2153 37.4708 27.2153 38.1465C27.2153 39.1711 28.0484 40.0026 29.0713 40.0026C30.096 40.0026 30.9265 39.1711 30.9265 38.1465C30.9257 37.4657 30.5632 36.8802 30.0236 36.556ZM12.4213 5.50093C12.4639 5.48305 13.5013 5.05415 15.4628 5.05415C17.4244 5.05415 18.461 5.48305 18.5044 5.50093C18.7469 5.6039 18.8609 5.88303 18.7588 6.12472C18.6814 6.30598 18.5044 6.41576 18.3197 6.41576C18.2576 6.41576 18.1954 6.403 18.1333 6.37832C18.1265 6.37491 17.2108 6.00643 15.462 6.00643C13.7132 6.00643 12.7975 6.37491 12.7881 6.37917C12.5456 6.48044 12.2682 6.36385 12.1669 6.12216C12.0665 5.88048 12.1805 5.6022 12.4213 5.50093ZM11.9456 8.39181C11.995 8.37138 13.1889 7.8778 15.4637 7.8778C17.7384 7.8778 18.9324 8.37138 18.9818 8.39181C19.2243 8.49478 19.3383 8.77391 19.2371 9.0156C19.1588 9.19686 18.9818 9.30664 18.7971 9.30664C18.735 9.30664 18.6729 9.29473 18.6116 9.2692C18.6014 9.26579 17.524 8.82922 15.4637 8.82922C13.4034 8.82922 12.3252 9.26494 12.3141 9.27005C12.0716 9.37047 11.7941 9.25558 11.6929 9.01389C11.5916 8.77221 11.7031 8.49393 11.9456 8.39181ZM15.4628 11.652C13.0911 11.652 11.8495 12.155 11.8375 12.1601C11.5933 12.2596 11.3167 12.1473 11.2146 11.9048C11.1142 11.6622 11.2274 11.3848 11.4691 11.2827C11.5244 11.2589 12.8766 10.6997 15.4628 10.6997C18.0491 10.6997 19.4013 11.2589 19.4566 11.2827C19.6975 11.3848 19.8107 11.6622 19.7111 11.9048C19.6328 12.0869 19.4566 12.1967 19.2703 12.1967C19.209 12.1967 19.1469 12.1848 19.0864 12.1601C19.0771 12.1558 17.8355 11.652 15.4628 11.652Z" fill="#D4007A"/>
</svg>
