<svg width="30" height="40" viewBox="0 0 30 40" fill="none" xmlns="http://www.w3.org/2000/svg">
<path d="M0.115625 25.7471L0.131407 25.7479C0.644688 16.8359 2.71031 15.5993 5.10102 14.1707C5.34188 14.0275 5.58602 13.881 5.83508 13.7215L5.83399 11.6666H5.83344C5.37281 11.6666 5.00008 11.2939 5.00008 10.8333V5.83328C5.00008 2.61719 7.61727 0 10.8334 0H20.0001C20.9197 0 21.6667 0.747891 21.6667 1.66664H23.3334C24.253 1.66664 25 2.41453 25 3.33328V5C25 5.91875 24.2529 6.66664 23.3334 6.66664H21.6667C21.6667 7.58539 20.9196 8.33328 20.0001 8.33328H19.0572L21.5268 12.0377C21.6977 12.2933 21.714 12.622 21.5675 12.893C21.4227 13.1641 21.1411 13.3333 20.8334 13.3333H19.1668C18.9861 13.3333 18.8103 13.2747 18.6671 13.1665L13.3334 9.16625V10.8334C13.3334 11.294 12.9607 11.6667 12.5001 11.6667V13.728L12.5652 13.7728C15.1238 15.5192 17.5391 17.1707 18.1633 25.728L18.182 25.7267C18.2846 27.3209 18.3334 36.6666 18.3334 36.6666C18.3334 38.5051 16.8377 40 15.0001 40H3.33344C1.49586 40 7.82013e-05 38.5051 7.82013e-05 36.6666C7.82013e-05 36.6666 0.0375004 27.2534 0.115625 25.7471ZM15.0001 33.3334C15.0001 33.3334 14.9584 27.9761 14.8889 26.6667H3.41828C3.36508 27.9255 3.33344 33.3334 3.33344 33.3334H15.0001Z" fill="#D4007A"/>
<path d="M26.6666 4.16661C26.6666 3.70599 27.0394 3.33325 27.5 3.33325H29.1666C29.6273 3.33333 30 3.70606 30 4.16661C30 4.62724 29.6273 4.99997 29.1666 4.99997H27.5C27.0394 4.99997 26.6666 4.62724 26.6666 4.16661Z" fill="#D4007A"/>
<path d="M28.7064 1.57888L27.0413 2.41224C26.9225 2.47162 26.7939 2.50013 26.6686 2.50013C26.3642 2.50013 26.0696 2.3317 25.9231 2.03951C25.718 1.62857 25.884 1.12724 26.2958 0.921305L27.961 0.0880241C28.3663 -0.114632 28.8725 0.0481803 29.0792 0.460758C29.2842 0.871696 29.1182 1.37302 28.7064 1.57888Z" fill="#D4007A"/>
<path d="M27.039 5.92111L28.7057 6.75439C29.1175 6.96025 29.2835 7.4608 29.0784 7.8726C28.9319 8.16478 28.6373 8.33322 28.3329 8.33322C28.2076 8.33322 28.0807 8.3047 27.9602 8.24533L26.2936 7.41197C25.8818 7.20611 25.7158 6.70557 25.9208 6.29377C26.1275 5.88205 26.6256 5.71768 27.039 5.92111Z" fill="#D4007A"/>
</svg>
