<svg width="37" height="40" viewBox="0 0 37 40" fill="none" xmlns="http://www.w3.org/2000/svg">
<path d="M1.14151 6.89884C0.395101 4.63656 1.62824 2.18852 3.89079 1.44198C6.15333 0.695449 8.60124 1.92898 9.34765 4.19126L17.8376 29.9229C17.0465 29.7141 16.205 29.6758 15.365 29.8294L7.14562 4.91786C6.79974 3.8695 5.66569 3.29819 4.61739 3.64407C3.56902 3.98996 2.99771 5.12401 3.3436 6.17231C3.54419 6.78035 3.21392 7.43603 2.60582 7.63662C1.99778 7.83721 1.34216 7.50688 1.14151 6.89884ZM34.5919 27.0844L20.6816 31.6741C21.1753 32.2346 21.5666 32.9009 21.8151 33.6537C21.8239 33.6806 21.8289 33.7077 21.8373 33.7346L35.3186 29.2865C35.9266 29.086 36.2569 28.4303 36.0563 27.8223C35.8557 27.2141 35.1999 26.8838 34.5919 27.0844ZM20.7141 34.0173C21.5023 36.4059 20.2047 38.9812 17.8161 39.7694C15.4274 40.5576 12.8521 39.2601 12.0639 36.8714C11.2758 34.4826 12.5733 31.9074 14.962 31.1192C17.3507 30.331 19.926 31.6286 20.7141 34.0173ZM18.5516 34.7307C18.1575 33.5364 16.8699 32.8877 15.6755 33.2818C14.4812 33.6758 13.8324 34.9635 14.2265 36.1578C14.6205 37.3521 15.9082 38.0008 17.1025 37.6069C18.2969 37.2127 18.9456 35.925 18.5516 34.7307ZM31.0765 9.63034L35.7991 23.9439C35.8995 24.2479 35.7343 24.5757 35.4303 24.676L20.5662 29.5803C20.2622 29.6806 19.9344 29.5154 19.8341 29.2114L15.1115 14.8979C15.0112 14.5938 15.1763 14.266 15.4804 14.1657L30.3444 9.26139C30.6484 9.16119 30.9762 9.32629 31.0765 9.63034ZM29.1103 17.945L24.049 15.1603L21.6396 20.4099L23.2348 21.1441L24.2766 18.8731L26.1577 24.5745L27.958 23.9805L26.0772 18.2799L28.2652 19.4843L29.1103 17.945ZM24.6938 9.4057L21.6745 0.2546C21.6104 0.0602208 21.4008 -0.0454001 21.2064 0.0187829L18.6174 0.872965L18.6048 0.896233L18.5831 0.884338L17.2171 1.33506L18.342 4.74414L16.8012 5.2525L15.6765 1.84342L14.3101 2.29427L14.2997 2.31675L14.2756 2.30564L11.7034 3.15434C11.509 3.21845 11.4035 3.42806 11.4676 3.62244L14.487 12.7736C14.5511 12.968 14.7607 13.0736 14.9551 13.0094L24.4582 9.87387C24.6524 9.80969 24.758 9.60008 24.6938 9.4057Z" fill="#D4007A"/>
</svg>
