<svg width="24" height="20" viewBox="0 0 24 20" fill="none" xmlns="http://www.w3.org/2000/svg">
<path d="M21 0H3C2.20435 0 1.44129 0.316071 0.87868 0.87868C0.31607 1.44129 0 2.20435 0 3L0 17C0 17.7956 0.31607 18.5587 0.87868 19.1213C1.44129 19.6839 2.20435 20 3 20H21C21.7956 20 22.5587 19.6839 23.1213 19.1213C23.6839 18.5587 24 17.7956 24 17V3C24 2.20435 23.6839 1.44129 23.1213 0.87868C22.5587 0.316071 21.7956 0 21 0ZM8.207 13.207L5.707 15.707C5.5184 15.8892 5.2658 15.99 5.0036 15.9877C4.7414 15.9854 4.49059 15.8802 4.30518 15.6948C4.11977 15.5094 4.0146 15.2586 4.01233 14.9964C4.01005 14.7342 4.11084 14.4816 4.293 14.293L6.793 11.793L8.207 13.207ZM19.707 15.707C19.5195 15.8945 19.2652 15.9998 19 15.9998C18.7348 15.9998 18.4805 15.8945 18.293 15.707L15.793 13.207L17.207 11.793L19.707 14.293C19.8945 14.4805 19.9998 14.7348 19.9998 15C19.9998 15.2652 19.8945 15.5195 19.707 15.707ZM19.707 5.707L12.707 12.707C12.5195 12.8945 12.2652 12.9998 12 12.9998C11.7348 12.9998 11.4805 12.8945 11.293 12.707L4.293 5.707C4.11084 5.5184 4.01005 5.2658 4.01233 5.0036C4.0146 4.7414 4.11977 4.49059 4.30518 4.30518C4.49059 4.11977 4.7414 4.0146 5.0036 4.01233C5.2658 4.01005 5.5184 4.11084 5.707 4.293L12 10.586L18.293 4.293C18.3852 4.19749 18.4956 4.12131 18.6176 4.0689C18.7396 4.01649 18.8708 3.9889 19.0036 3.98775C19.1364 3.9866 19.2681 4.0119 19.391 4.06218C19.5138 4.11246 19.6255 4.18671 19.7194 4.2806C19.8133 4.3745 19.8875 4.48615 19.9378 4.60905C19.9881 4.73194 20.0134 4.86362 20.0123 4.9964C20.0111 5.12918 19.9835 5.2604 19.9311 5.3824C19.8787 5.50441 19.8025 5.61475 19.707 5.707Z" fill="#D4007A"/>
</svg>
