<svg width="38" height="41" viewBox="0 0 38 41" fill="none" xmlns="http://www.w3.org/2000/svg">
<path d="M37.7185 40.125V20.6573H20.9959L20.6843 22.7939V25.4909L22.0421 40.125H25.5512V34.7367C25.5512 34.5523 25.626 34.3754 25.7591 34.245C25.8922 34.1146 26.0728 34.0414 26.261 34.0414H33.3586C33.5468 34.0414 33.7274 34.1146 33.8605 34.245C33.9936 34.3754 34.0684 34.5523 34.0684 34.7367V40.125H37.7185ZM31.6349 23.7861C31.6349 23.6017 31.7097 23.4248 31.8428 23.2944C31.9759 23.1641 32.1564 23.0908 32.3447 23.0908H34.5753C34.7636 23.0908 34.9441 23.1641 35.0772 23.2944C35.2103 23.4248 35.2851 23.6017 35.2851 23.7861V26.0535C35.2851 26.2379 35.2103 26.4147 35.0772 26.5451C34.9441 26.6755 34.7636 26.7487 34.5753 26.7487H32.3447C32.1564 26.7487 31.9759 26.6755 31.8428 26.5451C31.7097 26.4147 31.6349 26.2379 31.6349 26.0535V23.7861ZM29.2014 30.9126C29.2014 31.097 29.1267 31.2739 28.9936 31.4043C28.8604 31.5347 28.6799 31.6079 28.4917 31.6079H26.261C26.0728 31.6079 25.8922 31.5347 25.7591 31.4043C25.626 31.2739 25.5512 31.097 25.5512 30.9126V28.653C25.5512 28.4686 25.626 28.2918 25.7591 28.1614C25.8922 28.031 26.0728 27.9577 26.261 27.9577H28.4917C28.6799 27.9577 28.8604 28.031 28.9936 28.1614C29.1267 28.2918 29.2014 28.4686 29.2014 28.653V30.9126ZM29.2014 26.0535C29.2014 26.2379 29.1267 26.4147 28.9936 26.5451C28.8604 26.6755 28.6799 26.7487 28.4917 26.7487H26.261C26.0728 26.7487 25.8922 26.6755 25.7591 26.5451C25.626 26.4147 25.5512 26.2379 25.5512 26.0535V23.7861C25.5512 23.6017 25.626 23.4248 25.7591 23.2944C25.8922 23.1641 26.0728 23.0908 26.261 23.0908H28.4917C28.6799 23.0908 28.8604 23.1641 28.9936 23.2944C29.1267 23.4248 29.2014 23.6017 29.2014 23.7861V26.0535ZM34.5753 31.6079H32.3447C32.1564 31.6079 31.9759 31.5347 31.8428 31.4043C31.7097 31.2739 31.6349 31.097 31.6349 30.9126V28.653C31.6349 28.4686 31.7097 28.2918 31.8428 28.1614C31.9759 28.031 32.1564 27.9577 32.3447 27.9577H34.5753C34.7636 27.9577 34.9441 28.031 35.0772 28.1614C35.2103 28.2918 35.2851 28.4686 35.2851 28.653V30.9126C35.2851 31.097 35.2103 31.2739 35.0772 31.4043C34.9441 31.5347 34.7636 31.6079 34.5753 31.6079Z" fill="#D4007A"/>
<path d="M10.9506 20.6573H0L1.12532 25.5243H9.82525L10.9506 20.6573Z" fill="#D4007A"/>
<path d="M32.8517 35.2581H26.7681V40.125H32.8517V35.2581Z" fill="#D4007A"/>
<path d="M34.0685 29.1744H32.8518V30.3912H34.0685V29.1744Z" fill="#D4007A"/>
<path d="M34.0685 24.3075H32.8518V25.5242H34.0685V24.3075Z" fill="#D4007A"/>
<path d="M27.9848 24.3075H26.7681V25.5242H27.9848V24.3075Z" fill="#D4007A"/>
<path d="M27.9848 29.1744H26.7681V30.3912H27.9848V29.1744Z" fill="#D4007A"/>
<path d="M9.73391 26.741H1.2168V27.9577H9.73391V26.741Z" fill="#D4007A"/>
<path d="M9.7326 29.1744H1.21797L0 40.125H10.9506L9.7326 29.1744Z" fill="#D4007A"/>
<path d="M20.6845 10.9235H9.73389V12.1402H20.6845V10.9235Z" fill="#D4007A"/>
<path d="M12.7336 16.196C12.8978 16.196 13.0552 16.2707 13.1712 16.4039C13.2873 16.537 13.3525 16.7175 13.3525 16.9057V19.7448C13.3525 19.933 13.2873 20.1135 13.1712 20.2466C13.0552 20.3797 12.8978 20.4545 12.7336 20.4545H12.6222L12.3747 21.874H19.6237L20.6845 13.3569H9.73389L10.0891 16.196H12.7336Z" fill="#D4007A"/>
<path d="M10.9506 18.2239H0V19.4406H10.9506V18.2239Z" fill="#D4007A"/>
<path d="M10.9507 24.3076H19.4678V23.0908H11.2259L10.9507 24.3076Z" fill="#D4007A"/>
<path d="M20.6845 40.1251L19.4973 25.5243H11.0944L10.9507 26.3266V29.1292L12.1804 40.1251H20.6845Z" fill="#D4007A"/>
<path d="M7.50611e-05 14.4977H1.3689C1.3689 14.2177 1.46061 14.1082 1.72547 13.8317C1.95713 13.6315 2.14295 13.3837 2.27032 13.1052C2.39768 12.8267 2.4636 12.5241 2.4636 12.2179C2.4636 11.9117 2.39768 11.6091 2.27032 11.3306C2.14295 11.0521 1.95713 10.8043 1.72547 10.6041C1.45992 10.3269 1.36821 10.2174 1.36821 9.93607C1.36821 9.65478 1.45992 9.54528 1.72547 9.26877C1.95626 9.06747 2.14149 8.81929 2.26883 8.54077C2.39616 8.26226 2.46268 7.95981 2.46395 7.65356H1.09513C1.09513 7.93486 1.00342 8.04436 0.73787 8.32155C0.506274 8.52207 0.320519 8.77006 0.193205 9.04869C0.065892 9.32732 0 9.63008 0 9.93642C0 10.2428 0.065892 10.5455 0.193205 10.8241C0.320519 11.1028 0.506274 11.3508 0.73787 11.5513C1.00342 11.825 1.09513 11.938 1.09513 12.2186C1.09513 12.4992 1.00342 12.608 0.738554 12.8845C0.507688 13.0853 0.322375 13.3331 0.195017 13.6113C0.06766 13.8895 0.00119633 14.1917 7.50611e-05 14.4977Z" fill="#D4007A"/>
<path d="M3.42219 14.4977H4.79102C4.79102 14.2177 4.88273 14.1082 5.14759 13.8317C5.37925 13.6315 5.56507 13.3837 5.69243 13.1052C5.8198 12.8267 5.88572 12.5241 5.88572 12.2179C5.88572 11.9117 5.8198 11.6091 5.69243 11.3306C5.56507 11.0521 5.37925 10.8043 5.14759 10.6041C4.88204 10.3269 4.79033 10.2174 4.79033 9.93607C4.79033 9.65478 4.88204 9.54528 5.14759 9.26877C5.37838 9.06747 5.56361 8.81929 5.69095 8.54077C5.81828 8.26226 5.8848 7.95981 5.88607 7.65356H4.51725C4.51725 7.93486 4.42554 8.04436 4.15999 8.32155C3.92839 8.52207 3.74264 8.77006 3.61532 9.04869C3.48801 9.32732 3.42212 9.63008 3.42212 9.93642C3.42212 10.2428 3.48801 10.5455 3.61532 10.8241C3.74264 11.1028 3.92839 11.3508 4.15999 11.5513C4.42554 11.825 4.51725 11.938 4.51725 12.2186C4.51725 12.4992 4.42554 12.608 4.16067 12.8845C3.92981 13.0853 3.74449 13.3331 3.61714 13.6113C3.48978 13.8895 3.42332 14.1917 3.42219 14.4977Z" fill="#D4007A"/>
<path d="M9.49031 6.96911H10.8591C10.8591 6.68918 10.9508 6.57968 11.2157 6.30318C11.4474 6.10291 11.6332 5.85512 11.7605 5.57665C11.8879 5.29818 11.9538 4.99555 11.9538 4.68933C11.9538 4.38312 11.8879 4.08049 11.7605 3.80202C11.6332 3.52355 11.4474 3.27576 11.2157 3.07549C10.9502 2.79831 10.8584 2.6888 10.8584 2.40751C10.8584 2.12622 10.9502 2.01671 11.2157 1.74021C11.4465 1.5389 11.6317 1.29072 11.7591 1.01221C11.8864 0.733695 11.9529 0.431241 11.9542 0.125H10.5854C10.5854 0.406293 10.4937 0.515799 10.2281 0.792985C9.99651 0.993504 9.81075 1.24149 9.68344 1.52012C9.55613 1.79876 9.49023 2.10151 9.49023 2.40785C9.49023 2.71419 9.55613 3.01695 9.68344 3.29558C9.81075 3.57421 9.99651 3.8222 10.2281 4.02272C10.4937 4.29648 10.5854 4.40941 10.5854 4.69002C10.5854 4.97063 10.4937 5.07945 10.2288 5.35595C9.99792 5.55674 9.81261 5.80453 9.68525 6.08274C9.55789 6.36094 9.49143 6.66314 9.49031 6.96911Z" fill="#D4007A"/>
<path d="M13.5968 6.96911H14.9656C14.9656 6.68918 15.0573 6.57968 15.3222 6.30318C15.5538 6.10291 15.7396 5.85512 15.867 5.57665C15.9944 5.29818 16.0603 4.99555 16.0603 4.68933C16.0603 4.38312 15.9944 4.08049 15.867 3.80202C15.7396 3.52355 15.5538 3.27576 15.3222 3.07549C15.0566 2.79831 14.9649 2.6888 14.9649 2.40751C14.9649 2.12622 15.0566 2.01671 15.3222 1.74021C15.5529 1.5389 15.7382 1.29072 15.8655 1.01221C15.9928 0.733695 16.0594 0.431241 16.0606 0.125H14.6918C14.6918 0.406293 14.6001 0.515799 14.3345 0.792985C14.103 0.993504 13.9172 1.24149 13.7899 1.52012C13.6626 1.79876 13.5967 2.10151 13.5967 2.40785C13.5967 2.71419 13.6626 3.01695 13.7899 3.29558C13.9172 3.57421 14.103 3.8222 14.3345 4.02272C14.6001 4.29648 14.6918 4.40941 14.6918 4.69002C14.6918 4.97063 14.6001 5.07945 14.3352 5.35595C14.1044 5.55674 13.9191 5.80453 13.7917 6.08274C13.6643 6.36094 13.5979 6.66314 13.5968 6.96911Z" fill="#D4007A"/>
<path d="M17.7032 6.96911H19.072C19.072 6.68918 19.1637 6.57968 19.4286 6.30318C19.6602 6.10291 19.8461 5.85512 19.9734 5.57665C20.1008 5.29818 20.1667 4.99555 20.1667 4.68933C20.1667 4.38312 20.1008 4.08049 19.9734 3.80202C19.8461 3.52355 19.6602 3.27576 19.4286 3.07549C19.163 2.79831 19.0713 2.6888 19.0713 2.40751C19.0713 2.12622 19.163 2.01671 19.4286 1.74021C19.6594 1.5389 19.8446 1.29072 19.9719 1.01221C20.0993 0.733695 20.1658 0.431241 20.1671 0.125H18.7983C18.7983 0.406293 18.7065 0.515799 18.441 0.792985C18.2094 0.993504 18.0236 1.24149 17.8963 1.52012C17.769 1.79876 17.7031 2.10151 17.7031 2.40785C17.7031 2.71419 17.769 3.01695 17.8963 3.29558C18.0236 3.57421 18.2094 3.8222 18.441 4.02272C18.7065 4.29648 18.7983 4.40941 18.7983 4.69002C18.7983 4.97063 18.7065 5.07945 18.4417 5.35595C18.2108 5.55674 18.0255 5.80453 17.8981 6.08274C17.7708 6.36094 17.7043 6.66314 17.7032 6.96911Z" fill="#D4007A"/>
</svg>
