<svg width="38" height="32" viewBox="0 0 38 32" fill="none" xmlns="http://www.w3.org/2000/svg">
<path d="M10.6939 17.7132L13.9793 11.1962L16.3749 18.3338L20.0403 6.5158L22.9378 20.883L25.4917 17.7163L33.2817 17.7148C35.2482 15.0421 36.3471 12.4502 36.3471 9.63341C36.3471 4.29443 32.1829 0.166626 26.8059 0.166626C23.8577 0.166626 20.908 1.54415 19.0001 3.77978C17.0921 1.54408 14.1424 0.166626 11.1942 0.166626C5.81727 0.166626 1.65306 4.29436 1.65306 9.63177C1.65306 11.8421 2.33861 13.9179 3.58315 15.9999H0V17.7131H4.71678H8.63869H10.6939V17.7132Z" fill="#D4007A"/>
<path d="M38.0001 19.4279H25.9082L22.4533 23.7124L19.6872 13.4905L16.4081 21.9993L13.8162 15.1435L11.7594 19.428H6.0896C8.6736 22.4474 12.2583 25.6394 16.5744 29.4236L19.0001 31.8334L21.4257 29.4236C24.9392 26.344 27.9348 23.6618 30.332 21.1412H38.0001V19.4279Z" fill="#D4007A"/>
</svg>
