<svg width="40" height="36" viewBox="0 0 40 36" fill="none" xmlns="http://www.w3.org/2000/svg">
<path d="M21.1714 1.67188C21.1714 1.0246 20.6468 0.5 19.9995 0.5C19.3522 0.5 18.8276 1.0246 18.8276 1.67188V6.69263C18.8276 7.3399 19.3522 7.8645 19.9995 7.8645C20.6468 7.8645 21.1714 7.3399 21.1714 6.69263V1.67188Z" fill="#D4007A"/>
<path d="M14.1501 8.77673C14.3787 9.00531 14.6787 9.12006 14.9787 9.12006C15.2784 9.12006 15.5784 9.00562 15.8073 8.77673C16.2647 8.31897 16.2647 7.57709 15.8073 7.11932L13.2966 4.60895C12.8391 4.15118 12.0972 4.15118 11.6395 4.60895C11.1817 5.06671 11.1817 5.80859 11.6395 6.26636L14.1501 8.77673Z" fill="#D4007A"/>
<path d="M25.0203 9.11975C25.3203 9.11975 25.6202 9.00531 25.8488 8.77643L28.3595 6.26605C28.817 5.80859 28.817 5.06641 28.3595 4.60895C27.9017 4.15118 27.1599 4.15118 26.7021 4.60895L24.1917 7.11932C23.7339 7.57709 23.7339 8.31897 24.1917 8.77643C24.4206 9.00531 24.7206 9.11975 25.0203 9.11975Z" fill="#D4007A"/>
<path d="M16.6096 11.8215C16.5974 11.8316 16.5858 11.8413 16.5748 11.8505L11.5082 16.1937C11.0389 16.596 10.4389 16.8178 9.82001 16.8178H6.19116C2.77167 16.8178 -0.000244141 19.5849 -0.000244141 23.0092V34.3078C-0.000244141 34.9547 0.524353 35.4796 1.17163 35.4796H11.2131C11.8607 35.4796 12.385 34.9544 12.385 34.3078V23.5497L18.3481 18.4383C18.6527 18.1774 18.8279 17.7962 18.8279 17.3952V12.896C18.8279 11.7516 17.4985 11.1007 16.6096 11.8215Z" fill="#D4007A"/>
<path d="M33.8081 16.8178H30.1793C29.5604 16.8178 28.9604 16.596 28.491 16.1934L23.4245 11.8505C23.4135 11.8413 23.4019 11.8316 23.3897 11.8215C22.5007 11.1007 21.1714 11.7516 21.1714 12.896V17.3952C21.1714 17.7962 21.3466 18.1774 21.6511 18.4383L27.6143 23.5497V34.3074C27.6143 34.9544 28.1385 35.4793 28.7861 35.4793H38.8276C39.4749 35.4793 39.9995 34.9547 39.9995 34.3074V23.0092C39.9995 19.5849 37.2276 16.8178 33.8081 16.8178Z" fill="#D4007A"/>
<path d="M11.1298 11.8801C11.1298 9.15759 8.91479 6.94263 6.19232 6.94263C3.46985 6.94263 1.25488 9.15759 1.25488 11.8801C1.25488 14.6028 3.46985 16.8178 6.19232 16.8178C8.91479 16.8178 11.1298 14.6028 11.1298 11.8801Z" fill="#D4007A"/>
<path d="M38.7443 11.8801C38.7443 9.15759 36.5293 6.94263 33.8068 6.94263C31.0844 6.94263 28.8694 9.15759 28.8694 11.8801C28.8694 14.6028 31.0844 16.8178 33.8068 16.8178C36.5293 16.8178 38.7443 14.6028 38.7443 11.8801Z" fill="#D4007A"/>
</svg>
