<svg width="24" height="24" viewBox="0 0 24 24" fill="none" xmlns="http://www.w3.org/2000/svg">
<path d="M20 3H17.231C16.14 1.083 14.047 0 12 0C9.953 0 7.86 1.083 6.769 3H4C1.794 3 0 4.794 0 7V20C0 22.206 1.794 24 4 24H20C22.206 24 24 22.206 24 20V7C24 4.794 22.206 3 20 3ZM17.869 7H20C20.552 7 21 7.448 21 8V18.149L15.61 11.411C16.609 10.037 17.544 8.446 17.869 7ZM11 17V20H4.081L9.659 13.028C10.45 13.968 11.109 14.647 11.29 14.83L12 15.545L12.71 14.83C12.892 14.647 13.551 13.968 14.341 13.028L19.919 20H13V17H11ZM12 2C13.966 2 16 3.496 16 6C16 7.706 13.775 10.718 12 12.671C10.224 10.719 8 7.709 8 6C8 3.496 10.034 2 12 2ZM4 7H6.131C6.457 8.446 7.391 10.037 8.39 11.411L3 18.149V8C3 7.448 3.448 7 4 7Z" fill="#D4007A"/>
<path d="M12 7C12.5523 7 13 6.55228 13 6C13 5.44772 12.5523 5 12 5C11.4477 5 11 5.44772 11 6C11 6.55228 11.4477 7 12 7Z" fill="#D4007A"/>
</svg>
