<svg width="23" height="23" viewBox="0 0 23 23" fill="none" xmlns="http://www.w3.org/2000/svg">
<path d="M22.9846 10H20.9846C20.9822 7.879 20.1386 5.84555 18.6388 4.34578C17.1391 2.846 15.1056 2.00238 12.9846 2V0C15.6359 0.0029116 18.1777 1.05742 20.0525 2.93215C21.9272 4.80688 22.9817 7.34873 22.9846 10Z" fill="#D4007A"/>
<path d="M18.9846 10H16.9846C16.9846 8.93913 16.5632 7.92172 15.813 7.17157C15.0629 6.42143 14.0455 6 12.9846 6V4C14.5754 4.00159 16.1006 4.63424 17.2255 5.75911C18.3504 6.88399 18.983 8.40919 18.9846 10Z" fill="#D4007A"/>
<path d="M14.5065 14.471L12.1725 16.771L6.21351 10.812L8.51351 8.47799C8.6526 8.3365 8.74646 8.15683 8.78314 7.96184C8.81983 7.76685 8.79768 7.56535 8.71951 7.38299L6.32451 1.79299C6.22984 1.57256 6.05907 1.39351 5.84337 1.2885C5.62767 1.1835 5.38141 1.15954 5.14951 1.22099L0.749509 2.38299C0.529674 2.43987 0.335744 2.56987 0.199616 2.75162C0.0634884 2.93337 -0.00673075 3.15603 0.000508638 3.38299C0.280347 8.49688 2.40665 13.3354 5.98451 17C9.65025 20.5784 14.4904 22.7044 19.6055 22.983C19.8325 22.9902 20.0551 22.92 20.2369 22.7839C20.4186 22.6478 20.5486 22.4538 20.6055 22.234L21.7675 17.834C21.829 17.6021 21.805 17.3558 21.7 17.1401C21.595 16.9244 21.4159 16.7537 21.1955 16.659L15.6055 14.264C15.4225 14.1851 15.2202 14.1626 15.0244 14.1995C14.8286 14.2364 14.6482 14.3309 14.5065 14.471Z" fill="#D4007A"/>
</svg>