<svg width="37" height="40" viewBox="0 0 37 40" fill="none" xmlns="http://www.w3.org/2000/svg">
<path d="M6.19195 2.7588H5.5022V0H6.19195C6.9527 0.00254303 7.5689 0.61874 7.57125 1.3795C7.5732 1.7453 7.42629 2.09624 7.16456 2.35191C6.90869 2.61385 6.55795 2.76076 6.19195 2.7588Z" fill="#D4007A"/>
<path d="M11.0193 1.37951C11.0174 1.01351 11.1643 0.662571 11.4262 0.406704C11.6819 0.144968 12.0326 -0.00174489 12.3986 1.56641e-05H13.0883V2.75881H12.3986C11.6378 2.75646 11.0217 2.14007 11.0193 1.37951Z" fill="#D4007A"/>
<path d="M17.8885 3.16548C18.0047 2.37284 17.7735 1.56866 17.2539 0.958525C16.7402 0.352307 15.9865 0.00195617 15.1919 0H14.4679V2.75879H15.1919L13.2402 15.5862C13.0513 16.927 11.9046 17.9234 10.5507 17.9242H8.04032C6.68645 17.9234 5.53954 16.927 5.35058 15.5862L3.3989 2.75879H4.12308V0H3.3989C2.6043 0.00195617 1.85059 0.352307 1.3369 0.958525C0.816748 1.57081 0.585137 2.37773 0.702507 3.17233L2.65399 15.9999C3.03231 18.6838 5.33004 20.6787 8.04032 20.676H10.5507C13.261 20.6787 15.5585 18.6838 15.9368 15.9999L17.8885 3.16548Z" fill="#D4007A"/>
<path d="M8.04051 20.676C7.68625 20.6764 7.33238 20.642 6.98535 20.5725C6.98535 20.5655 6.99239 20.5655 6.99239 20.5588L9.94407 20.676H8.04051Z" fill="#D4007A"/>
<path d="M28.0884 32.5311C27.1473 34.1403 25.9202 35.5638 24.4677 36.7322C22.8249 38.2046 20.8048 39.1905 18.633 39.5792C17.1966 39.84 15.7412 39.9804 14.2813 39.9998C10.509 39.9998 7.78467 38.917 6.14364 36.7723C3.08144 32.7586 4.8195 26.1102 6.46093 21.8759C6.97892 21.9952 7.50866 22.0552 8.04015 22.055H9.34355C7.70897 26.0552 6.01942 32.0826 8.33651 35.1033C9.79875 37.0137 12.709 37.4137 15.7299 37.186C16.0057 37.1653 16.2745 37.1377 16.5503 37.1101C16.6882 37.0962 16.8334 37.0826 16.9713 37.0618C18.1823 36.9738 19.3674 36.6649 20.4675 36.1502C21.5552 35.5205 22.5599 34.7576 23.4585 33.8793C24.3265 33.1346 25.0622 32.2485 25.6346 31.2584C26.9311 28.8514 27.0413 26.4723 25.9311 25.4308C25.3044 24.9208 24.4992 24.6849 23.6966 24.7761C22.8668 24.8383 22.1011 25.2461 21.5863 25.8997C21.3171 26.2334 20.9116 26.4277 20.4828 26.4277C20.0542 26.4277 19.6485 26.2334 19.3791 25.8997C18.8645 25.2461 18.0986 24.8383 17.2692 24.7761C17.1655 24.7688 17.062 24.7618 16.9656 24.7618C16.2623 24.7446 15.5763 24.9823 15.0345 25.4308C13.9243 26.4723 14.0345 28.8514 15.3103 31.224C16.2389 32.7549 17.4769 34.0753 18.945 35.1C18.9517 35.1068 18.9587 35.1137 18.9654 35.1137C17.8934 35.5284 16.771 35.7997 15.6278 35.9204C14.5084 34.9525 13.5718 33.7915 12.8623 32.4928C10.9586 28.9414 11.0621 25.3688 13.1518 23.424C13.7856 22.8528 14.5472 22.441 15.3723 22.2241C16.0706 22.0339 16.797 21.9709 17.5174 22.038C18.5904 22.1225 19.618 22.5073 20.4828 23.1481C22.698 21.5394 25.7255 21.6536 27.8138 23.424C29.9022 25.3721 30.0055 28.9447 28.0884 32.5311Z" fill="#D4007A"/>
<path d="M34.8196 36.7724C33.1781 38.9172 30.454 40 26.6815 40C25.3669 39.9904 24.0551 39.88 22.7576 39.669C23.3634 39.3032 23.9399 38.8904 24.4816 38.4342L24.8403 38.1517C25.2333 37.8481 25.6056 37.5379 25.9504 37.2275C28.7091 37.345 31.2885 36.862 32.6263 35.1034C34.8403 32.1999 33.4057 26.5725 31.8472 22.6001C32.7519 22.4221 33.615 22.0758 34.392 21.5793C36.0539 25.7932 37.9573 32.6621 34.8196 36.7724Z" fill="#D4007A"/>
<path d="M30.3296 8.96558C26.9018 8.96558 24.1228 11.7443 24.1228 15.1723C24.1228 18.6005 26.9018 21.3795 30.3296 21.3795C30.5856 21.3809 30.8413 21.3648 31.0952 21.3314C32.1377 21.2046 33.13 20.8128 33.978 20.1931C36.1525 18.6123 37.0622 15.8112 36.2318 13.2545C35.4006 10.6972 33.0181 8.96616 30.3296 8.96558ZM30.3296 18.6207C28.4252 18.6207 26.8814 17.0767 26.8814 15.1723C26.8814 13.268 28.4252 11.7244 30.3296 11.7244C32.2341 11.7244 33.7781 13.268 33.7781 15.1723C33.7781 17.0767 32.2341 18.6207 30.3296 18.6207Z" fill="#D4007A"/>
<path d="M32.3988 15.1722C32.3988 16.3148 31.4726 17.2412 30.3298 17.2412C29.1872 17.2412 28.261 16.3148 28.261 15.1722C28.261 14.0296 29.1872 13.1031 30.3298 13.1031C31.4726 13.1031 32.3988 14.0296 32.3988 15.1722Z" fill="#D4007A"/>
</svg>
