<svg width="37" height="40" viewBox="0 0 37 40" fill="none" xmlns="http://www.w3.org/2000/svg">
<path d="M8.80676 0.0745763C8.70902 0.0433614 8.60938 0.0184514 8.50845 0V3.57288C9.95444 4.28957 10.8707 5.76242 10.8746 7.37627C10.8625 7.94298 10.75 8.50306 10.5424 9.03051C10.3465 9.46638 10.0679 9.86009 9.72201 10.1898C9.00337 10.9831 8.18981 11.6949 7.42371 12.4475C7.33557 12.5356 7.24066 12.6237 7.15252 12.7186C6.34574 13.5119 5.55252 14.3186 4.73896 15.1254C4.53557 15.3356 4.3254 15.5458 4.11523 15.7559L2.90845 16.9695C2.5857 17.2823 2.40451 17.7132 2.40676 18.1627L2.40674 28.1898C2.93212 27.925 3.51338 27.7902 4.10167 27.7966C4.68772 27.7909 5.2666 27.9258 5.78981 28.1898V19.2136C5.79179 18.9895 5.8819 18.7751 6.04066 18.6169C6.35252 18.2983 6.67116 17.9864 6.97625 17.6814L7.15252 17.5051C7.94574 16.7051 8.74574 15.9051 9.55252 15.139L9.56608 15.1254C9.74235 14.9559 9.91862 14.7864 10.0949 14.6237C10.7864 13.9797 11.4779 13.3288 12.1085 12.6237C13.2767 11.2501 14.0189 9.56544 14.244 7.77627C14.4325 4.26005 12.1832 1.07404 8.80676 0.0745763Z" fill="#D4007A"/>
<path d="M4.10164 29.1525C3.10503 29.1525 2.40672 29.6881 2.40672 30.1694V37.627C2.36683 38.2569 2.68022 38.8568 3.22003 39.1838C3.75984 39.5109 4.43665 39.5109 4.97646 39.1838C5.51628 38.8568 5.82967 38.2569 5.78977 37.627V30.0745C5.70164 29.6135 5.01011 29.1525 4.10164 29.1525Z" fill="#D4007A"/>
<path d="M10.2035 29.1525C9.29503 29.1525 8.6035 29.6135 8.51537 30.0609C8.51537 30.0677 8.50859 30.0677 8.51537 30.0745V37.627C8.47547 38.2569 8.78886 38.8568 9.32867 39.1838C9.86848 39.5109 10.5453 39.5109 11.0851 39.1838C11.6249 38.8568 11.9383 38.2569 11.8984 37.627V30.1694C11.8984 29.6881 11.2001 29.1525 10.2035 29.1525Z" fill="#D4007A"/>
<path d="M10.522 16.0883L10.5085 16.1018C9.73557 16.834 8.99659 17.573 8.11523 18.4611C8.16269 18.5154 8.21015 18.5628 8.26439 18.6171C8.42314 18.7753 8.51325 18.9896 8.51523 19.2137V28.19C9.58197 27.6656 10.8316 27.6656 11.8983 28.19L11.8983 18.1628C11.9005 17.7134 11.7193 17.2824 11.3966 16.9696L10.522 16.0883Z" fill="#D4007A"/>
<path d="M3.75597 14.1898L3.76275 14.1831C4.13563 13.8169 4.48139 13.4644 4.82715 13.1186C5.28139 12.6644 5.72207 12.2237 6.17631 11.7763C5.63393 11.2542 5.08478 10.7458 4.58309 10.1898C4.23722 9.8601 3.95862 9.46638 3.76275 9.03051C3.55511 8.50307 3.44263 7.94298 3.43054 7.37627C3.43439 5.76242 4.35066 4.28957 5.79664 3.57288V0C5.69572 0.0184514 5.59608 0.0433614 5.49834 0.0745763C2.12189 1.07404 -0.127388 4.26005 0.0610507 7.77627C0.286197 9.56544 1.02838 11.2501 2.19664 12.6237C2.69156 13.1729 3.21359 13.6881 3.75597 14.1898Z" fill="#D4007A"/>
<path d="M24.7795 36.9491C24.7795 38.2596 25.8419 39.322 27.1524 39.322C28.4629 39.322 29.5253 38.2596 29.5253 36.9491V19.661H24.7795V36.9491Z" fill="#D4007A"/>
<path d="M35.817 3.91864C33.7633 3.33003 31.6554 2.9507 29.5254 2.78644V2.37288C29.5191 1.065 28.4604 0.00630675 27.1525 0C26.5232 0 25.9197 0.249999 25.4747 0.695001C25.0297 1.14 24.7797 1.74355 24.7797 2.37288V2.78644C22.6488 2.94407 20.5402 3.32352 18.4881 3.91864C18.1988 4.007 18.0008 4.2737 18 4.57627V13.7288C18.0008 14.0314 18.1988 14.2981 18.4881 14.3864C20.1037 14.8517 21.7543 15.185 23.4237 15.383V16.9492C23.426 17.6971 24.0317 18.3029 24.7797 18.3051H29.5254C30.2734 18.3029 30.8791 17.6971 30.8814 16.9492V15.383C32.5508 15.185 34.2014 14.8517 35.817 14.3864C36.1063 14.2981 36.3043 14.0314 36.3051 13.7288V4.57627C36.3043 4.2737 36.1063 4.007 35.817 3.91864ZM20.678 6.77966C20.3042 6.76051 20.0167 6.44218 20.0356 6.06845C20.0544 5.69471 20.3725 5.40692 20.7462 5.42545C21.12 5.44398 21.4081 5.76183 21.3898 6.13559C21.3811 6.31548 21.3011 6.48449 21.1675 6.60532C21.034 6.72615 20.8578 6.78888 20.678 6.77966ZM22.8407 6.3661C22.8093 6.3715 22.7775 6.37377 22.7458 6.37288C22.3901 6.3725 22.0952 6.09731 22.0702 5.74249C22.0452 5.38768 22.2987 5.0739 22.6508 5.02373C24.0297 4.82514 25.4205 4.72094 26.8136 4.71186C27.188 4.71186 27.4915 5.0154 27.4915 5.38983C27.4915 5.76426 27.188 6.0678 26.8136 6.0678C25.4841 6.07937 24.1569 6.17902 22.8407 6.3661Z" fill="#D4007A"/>
</svg>
