<svg width="24" height="20" viewBox="0 0 24 20" fill="none" xmlns="http://www.w3.org/2000/svg">
<path d="M19 19H23V14.677C22.9999 14.4772 22.9399 14.282 22.8278 14.1166C22.7157 13.9511 22.5566 13.8231 22.371 13.749L18.629 12.249C18.4438 12.175 18.2849 12.0473 18.1728 11.8822C18.0607 11.7172 18.0005 11.5225 18 11.323V10.445C18.6065 10.0969 19.1107 9.5953 19.4617 8.99055C19.8128 8.3858 19.9985 7.69926 20 6.99998V4.99998C20.0002 4.29776 19.8154 3.60787 19.4644 2.99967C19.1134 2.39147 18.6085 1.88639 18.0004 1.53521C17.3923 1.18403 16.7024 0.999124 16.0002 0.999084C15.298 0.999045 14.6081 1.18387 14 1.53498" stroke="#D4007A" stroke-width="2" stroke-miterlimit="10" stroke-linecap="square"/>
<path d="M14.371 14.749L10.629 13.249C10.4438 13.175 10.2849 13.0473 10.1728 12.8823C10.0607 12.7172 10.0005 12.5225 10 12.323V11.872C13.27 11.435 14 10 14 10C14 10 12 8 12 6C12 4.93913 11.5786 3.92172 10.8284 3.17157C10.0783 2.42143 9.06087 2 8 2C6.93913 2 5.92172 2.42143 5.17157 3.17157C4.42143 3.92172 4 4.93913 4 6C4 8 2 10 2 10C2 10 2.73 11.435 6 11.872V12.323C5.99987 12.5228 5.93989 12.718 5.82777 12.8834C5.71566 13.0488 5.55656 13.1769 5.371 13.251L1.629 14.751C1.44375 14.825 1.28488 14.9527 1.17279 15.1177C1.0607 15.2828 1.00053 15.4775 1 15.677V19H15V15.677C14.9999 15.4772 14.9399 15.282 14.8278 15.1166C14.7157 14.9512 14.5566 14.8231 14.371 14.749Z" stroke="#D4007A" stroke-width="2" stroke-miterlimit="10" stroke-linecap="square"/>
</svg>
