<svg width="15" height="16" viewBox="0 0 15 16" fill="none" xmlns="http://www.w3.org/2000/svg">
<path d="M1.37409 3.16018C1.23133 3.16018 1.11118 3.20898 1.05057 3.30442C0.988073 3.4029 0.997532 3.52986 1.06423 3.65834L2.66809 6.35922C2.6708 6.36434 2.6708 6.36762 2.66809 6.37234L0.147695 10.6991C0.0819874 10.8264 0.0851946 10.9543 0.147695 11.0531C0.208221 11.148 0.314884 11.2103 0.457812 11.2103H2.82985C3.18446 11.2103 3.35559 10.9775 3.47681 10.7647C3.47681 10.7647 5.94169 6.52394 6.03766 6.3593C6.02796 6.3441 4.40691 3.5929 4.40691 3.5929C4.28857 3.38834 4.11036 3.1601 3.74654 3.1601H1.37409V3.16018Z" fill="#ABABAB"/>
<path d="M11.3395 0.000239868C10.9851 0.000239868 10.8316 0.21736 10.7044 0.43976C10.7044 0.43976 5.5942 9.25576 5.42578 9.5452C5.43442 9.56088 8.79617 15.5605 8.79617 15.5605C8.91393 15.7651 9.09559 16 9.459 16H11.8282C11.9712 16 12.0828 15.9477 12.143 15.8526C12.2064 15.7542 12.2046 15.624 12.1382 15.4959L8.79412 9.55232C8.79255 9.55009 8.79171 9.54746 8.79171 9.54476C8.79171 9.54206 8.79255 9.53942 8.79412 9.5372L14.046 0.5036C14.112 0.37608 14.1134 0.246 14.051 0.14744C13.9905 0.0524002 13.8785 0 13.7356 0H11.3393V0.000159912H11.3395V0.000239868Z" fill="#ABABAB"/>
</svg>
