<svg width="14" height="16" viewBox="0 0 14 16" fill="none" xmlns="http://www.w3.org/2000/svg">
<path d="M1.27595 3.16024C1.13319 3.16024 1.01304 3.20904 0.952429 3.30448C0.889929 3.40296 0.899387 3.52992 0.966081 3.6584L2.56995 6.35928C2.57266 6.3644 2.57266 6.36768 2.56995 6.3724L0.0495501 10.6991C-0.0161572 10.8265 -0.0129499 10.9544 0.0495501 11.0531C0.110076 11.1481 0.21674 11.2104 0.359667 11.2104H2.73171C3.08631 11.2104 3.25745 10.9776 3.37866 10.7648C3.37866 10.7648 5.84355 6.524 5.93952 6.35936C5.92981 6.34416 4.30876 3.59296 4.30876 3.59296C4.19042 3.3884 4.01222 3.16016 3.6484 3.16016H1.27595V3.16024Z" fill="#005A5F"/>
<path d="M11.2414 0.000239868C10.887 0.000239868 10.7335 0.21736 10.6062 0.43976C10.6062 0.43976 5.49606 9.25576 5.32764 9.5452C5.33627 9.56088 8.69802 15.5605 8.69802 15.5605C8.81579 15.7651 8.99745 16 9.36085 16H11.7301C11.873 16 11.9847 15.9477 12.0449 15.8526C12.1082 15.7542 12.1064 15.624 12.04 15.4959L8.69597 9.55232C8.6944 9.55009 8.69356 9.54746 8.69356 9.54476C8.69356 9.54206 8.6944 9.53942 8.69597 9.5372L13.9479 0.5036C14.0139 0.37608 14.0153 0.246 13.9529 0.14744C13.8923 0.0524002 13.7803 0 13.6374 0H11.2411V0.000159912H11.2414V0.000239868Z" fill="#D4D600"/>
</svg>
